<?xml version="1.0" encoding="UTF-8"?>
<svg width="290px" height="205px" viewBox="0 0 290 205" version="1.1" xmlns="http://www.w3.org/2000/svg" xmlns:xlink="http://www.w3.org/1999/xlink">
    <!-- Generator: Sketch 55.1 (78136) - https://sketchapp.com -->
    <title>Group 20</title>
    <desc>Created with Sketch.</desc>
    <g id="Page-1" stroke="none" stroke-width="1" fill="none" fill-rule="evenodd">
        <g id="Desktop-HD" transform="translate(-234.000000, -1444.000000)">
            <g id="Get-it-done" transform="translate(234.000000, 1393.000000)">
                <g id="Group-20" transform="translate(0.000000, 0.620237)">
                    <ellipse id="Oval" fill="#D8D8D8" opacity="0.335518973" cx="137.5" cy="251.879763" rx="137.5" ry="3.5"></ellipse>
                    <path d="M165.629291,245.391409 C218.096342,245.391409 282.637511,221.456238 282.637511,170.093756 C282.637511,118.731274 175.104562,58 122.637511,58 C70.1704596,58 106.628408,102.001033 75.2671805,141.502339 C43.9059536,181.003645 113.16224,245.391409 165.629291,245.391409 Z" id="Oval" fill="#F0F0F3" transform="translate(175.027213, 151.695705) scale(1, -1) rotate(140.000000) translate(-175.027213, -151.695705) "></path>
                    <path d="M155.629291,235.391409 C208.096342,235.391409 272.637511,211.456238 272.637511,160.093756 C272.637511,108.731274 165.104562,48 112.637511,48 C60.1704596,48 96.6284075,92.0010327 65.2671805,131.502339 C33.9059536,171.003645 103.16224,235.391409 155.629291,235.391409 Z" id="Oval-Copy-3" stroke="#FFA714" transform="translate(165.027213, 141.695705) scale(1, -1) rotate(140.000000) translate(-165.027213, -141.695705) "></path>
                    <g id="reading-corner-colour" transform="translate(6.000000, 52.379763)">
                        <path d="M19.3211009,130.028433 C17.4281346,130.028433 16.969419,128 14.587156,128 C13.1039755,128 10,128.829404 10,130.250809 L10,130.250809 L11.5626911,141 L20.2018349,141 L22,129.117892 C21.7798165,129.788026 20.7798165,130.028433 19.3211009,130.028433 Z" id="Path" fill="#FFE4AD" fill-rule="nonzero"></path>
                        <path d="M249.832561,198 C253.479108,192.63551 255,188.370741 255,186.689867 C255,170.059948 198.514439,152.306467 141.831282,149.046049 C141.8223,140.680425 101.279158,85 77.507739,85 C60.5982967,85 49,95.7289799 49,120.465239 C49,151.781939 61.4066447,178.261657 79.0915023,198 L249.832561,198 Z" id="Path" fill="#3E5F7B" fill-rule="nonzero"></path>
                        <path d="M117.406348,73 C117.406348,98.1121125 125,97.9908123 125,101.638696 C125,108.807245 121.46311,107.969978 121.46311,107.969978 C121.46311,107.969978 85.0340234,104.372389 117.406348,73 Z" id="Path" fill="#000000" fill-rule="nonzero"></path>
                        <path d="M34,23 L34,0" id="Path" stroke="#C8D6E2" stroke-width="2.38" stroke-linecap="round" stroke-linejoin="round"></path>
                        <path d="M184,23 L184,0" id="Path" stroke="#C8D6E2" stroke-width="2.38" stroke-linecap="round" stroke-linejoin="round"></path>
                        <circle id="Oval" fill="#FFE4AD" fill-rule="nonzero" cx="34" cy="42" r="5"></circle>
                        <circle id="Oval" fill="#FFE4AD" fill-rule="nonzero" cx="184" cy="42" r="5"></circle>
                        <path d="M253.808604,171.58464 C251.855825,168.23473 181.216799,146.802987 173.075718,146.475086 C157.777445,143.922773 147.707581,152.149845 144,159.325269 C158.245392,162.477257 175.196478,167.088552 179.512991,168.840313 L180.568872,168.840313 C181.168804,168.807818 181.849727,168.80191 182.632639,168.822589 C188.005033,168.760553 192.486527,168.636483 194.904254,168.494688 C202.241425,171.188795 250.032031,181.601875 251.207898,180.972659 C252.383765,180.343443 254.675507,173.06758 253.808604,171.58464 Z" id="Path" fill="#5FC5D1" fill-rule="nonzero"></path>
                        <path d="M125.457234,155.878697 C129.761753,156.083109 138.415442,157.826621 147.575195,160 C153.165711,154.507935 157.377947,147.013837 156.973096,138.05579 C148.340244,117.963311 113.808839,91.9879799 99.3711387,92 C97.2010185,93.8036379 96.7247232,106.949121 95.0785277,114.605546 C94.4831587,117.413203 97.3319997,125.529554 101.627587,134.72508 C111.469038,142.258257 120.908615,150.900668 125.457234,155.878697 Z" id="Path" fill="#FFD98E" fill-rule="nonzero"></path>
                        <polygon id="Path" fill="#E49D75" fill-rule="nonzero" points="251.841341 174 258 175.62634 256.105028 182 250 180.869832"></polygon>
                        <path d="M109.318083,89.0463392 C109.204926,90.4275238 109.279371,96.2033866 110,99 C107.954249,98.9657558 95.7452521,88.2102088 109.318083,89.0463392 Z" id="Path" fill="#E49D75" fill-rule="nonzero"></path>
                        <ellipse id="Oval" fill="#E49D75" fill-rule="nonzero" cx="106" cy="76" rx="11" ry="14"></ellipse>
                        <path d="M104.831923,58 C90.6310641,58 85,78.4268735 85,89.6510539 C85,99.7107143 88.8011185,102.40404 90.5349094,103.228162 C92.2687002,104.052283 96.6437426,104.204567 99.435236,104.876405 C103.010992,105.739344 104.952116,109 108.257437,109 C110.823567,109 112.335,106.524649 112.335,104.521077 C112.335,96.4022834 98.6659977,89.5913349 98.6659977,77.5101874 C101.286215,76.6144028 111.094003,69.5168033 111.094003,66.692096 C111.094003,68.6090749 116.11208,73.8165691 116.959444,74.1868267 C117.332044,72.9655738 115.27974,58 104.831923,58 Z" id="Path" fill="#000000" fill-rule="nonzero"></path>
                        <polygon id="Rectangle" fill="#E0E0E0" fill-rule="nonzero" transform="translate(150.913293, 126.601389) rotate(3.290000) translate(-150.913293, -126.601389) " points="143.023664 112.509393 158.802132 112.509836 158.802922 140.693385 143.024454 140.692943"></polygon>
                        <polygon id="Path" fill="#C9C9C9" fill-rule="nonzero" points="172.434908 131.777249 162 140 163.565092 112.222751 174 104"></polygon>
                        <path d="M145,111 L161,113" id="Path" stroke="#D3D3D3" stroke-width="2.38" stroke-linecap="round" stroke-linejoin="round"></path>
                        <path d="M169,103 L161,112" id="Path" stroke="#D3D3D3" stroke-width="2.38" stroke-linecap="round" stroke-linejoin="round"></path>
                        <path d="M171,104 L162,112" id="Path" stroke="#D3D3D3" stroke-width="2.38" stroke-linecap="round" stroke-linejoin="round"></path>
                        <polygon id="Path" fill="#E49D75" fill-rule="nonzero" points="220 172.522279 222.891057 177 227 174.330763 224.561382 170"></polygon>
                        <path d="M33.4970243,23 C22.7286338,23.0016856 14,31.9554969 14,43 L53,43 C53,37.6951414 50.9451332,32.6076006 47.2875302,28.8567854 C43.6299272,25.1059701 38.6692614,22.9991907 33.4970243,23 Z" id="Path" fill="#FD8369" fill-rule="nonzero"></path>
                        <path d="M184.505954,23 C179.332138,23 174.370271,25.1072341 170.712109,28.8580495 C167.053948,32.6088648 164.999211,37.6959509 165,43 L204,43 C204,31.9602617 195.274626,23.0084234 184.505954,23 Z" id="Path" fill="#FD8369" fill-rule="nonzero"></path>
                        <path d="M0,141 L60,141" id="Path" stroke="#C8D6E2" stroke-width="2.38" stroke-linecap="round" stroke-linejoin="round"></path>
                        <path d="M30,141 L30,198" id="Path" stroke="#C8D6E2" stroke-width="2.38" stroke-linecap="round" stroke-linejoin="round"></path>
                        <rect id="Rectangle" stroke="#FD8369" stroke-width="2.38" stroke-linecap="round" stroke-linejoin="round" x="32" y="133" width="14" height="7"></rect>
                        <circle id="Oval" fill="#E49D75" fill-rule="nonzero" cx="98" cy="79" r="3"></circle>
                        <polygon id="Path" fill="#D3D3D3" fill-rule="nonzero" points="161.470888 140.09515 158 141 159.529112 112.907836 163 112"></polygon>
                        <polygon id="Path" fill="#000000" fill-rule="nonzero" points="222 177.11692 224.23832 183 243 178.474335 242.285898 175.032319 227.049721 174"></polygon>
                        <polygon id="Path" fill="#000000" fill-rule="nonzero" points="256 181.114079 261.9635 184 272 167.11247 268.938476 165 257.29445 175.125181"></polygon>
                        <path d="M191.871305,109.015717 C177.389742,112.284466 152.364428,138.73162 140,158.07073 C148.962638,159.948775 159.763919,162.655894 167.953968,164.935104 C180.414221,155.313094 189.514607,139.973745 190.862147,138.143245 C194.263937,145.016534 218.435809,173 220.208573,173 C221.981336,173 224.865072,171.751932 226,169.627245 C224.981859,163.630576 199.549288,107.928114 191.871305,109.015717 Z" id="Path" fill="#6BD5E1" fill-rule="nonzero"></path>
                        <path d="M110.726502,142 C121.997705,140.961994 143.872322,136.895201 145.743336,136.493392 C148.09564,135.991131 150.231363,128.56071 148.164825,124.16212 C147.451915,122.865373 146.660795,122.831889 146.059183,122.974958 C145.45757,123.118026 144.022725,128.472434 142.5578,128.75857 C141.092874,129.044707 114.014312,130.682383 111.725178,130.785879 C111.424372,129.34302 108.671996,118.8899 108.010223,118.064975 C107.348449,117.240049 93,124.542621 93,124.542621 C93.6601461,126.430346 94.431595,128.2763 95.3101906,130.070537 C100.493079,133.665509 105.850435,137.884503 110.726502,142 Z" id="Path" fill="#E49D75" fill-rule="nonzero"></path>
                        <path d="M90.7312809,97.2677475 C95.3915772,95.6167589 105.877244,101.484623 109,118.113714 C107.212163,120.614037 97.3790565,126.079585 91.6669158,125.999121 C89.1699028,123.790849 80.8177222,100.766413 90.7312809,97.2677475 Z" id="Path" fill="#FFE4AD" fill-rule="nonzero"></path>
                        <polyline id="Path" stroke="#FD8369" stroke-width="2.38" stroke-linecap="round" stroke-linejoin="round" points="23 123 20.304252 141 11.590879 141 9 123"></polyline>
                    </g>
                </g>
            </g>
        </g>
    </g>
</svg>