<?xml version="1.0" encoding="UTF-8"?>
<svg width="23px" height="18px" viewBox="0 0 23 18" version="1.1" xmlns="http://www.w3.org/2000/svg" xmlns:xlink="http://www.w3.org/1999/xlink">
    <!-- Generator: Sketch 55.1 (78136) - https://sketchapp.com -->
    <title>github-alt-brands</title>
    <desc>Created with Sketch.</desc>
    <g id="Page-1" stroke="none" stroke-width="1" fill="none" fill-rule="evenodd">
        <g id="Desktop-HD" transform="translate(-693.000000, -2189.000000)" fill="#000000" fill-rule="nonzero">
            <g id="Group-7-Copy" transform="translate(570.000000, 1921.000000)">
                <g id="Group-4" transform="translate(123.000000, 268.000000)">
                    <g id="github-alt-brands" transform="translate(0.000000, 0.000000)">
                        <path d="M8.56482955,12.4074423 C8.56482955,13.3871006 8.06318182,14.9901778 6.87579545,14.9901778 C5.68840909,14.9901778 5.18676136,13.3871006 5.18676136,12.4074423 C5.18676136,11.4277841 5.68840909,9.82470689 6.87579545,9.82470689 C8.06318182,9.82470689 8.56482955,11.4277841 8.56482955,12.4074423 L8.56482955,12.4074423 Z M22.0909091,10.0403255 C22.0909091,11.5355933 21.9436364,13.1199211 21.2855114,14.4933176 C19.54125,18.0838355 14.7456818,17.999463 11.3123864,17.999463 C7.82386364,17.999463 2.74295455,18.1260217 0.929659091,14.4933176 C0.257727273,13.1339832 0,11.5355933 0,10.0403255 C0,8.07632155 0.639715909,6.22012693 1.90994318,4.71548432 C1.670625,3.97488141 1.55556818,3.19677963 1.55556818,2.42805256 C1.55556818,1.42027013 1.78107955,0.914035231 2.2275,0 C4.31232955,0 5.64698864,0.421862414 7.23477273,1.68744966 C8.56943182,1.36402181 9.94090909,1.21871364 11.3169886,1.21871364 C12.5596023,1.21871364 13.8114205,1.35464709 15.0172159,1.64995078 C16.5819886,0.398425613 17.9166477,0 19.9784659,0 C20.4294886,0.914035231 20.6503977,1.42027013 20.6503977,2.42805256 C20.6503977,3.19677963 20.5307386,3.96081933 20.2960227,4.68736016 C21.5616477,6.20606485 22.0909091,8.07632155 22.0909091,10.0403255 L22.0909091,10.0403255 Z M19.1316477,12.4074423 C19.1316477,10.3496912 17.9028409,8.53568285 15.7489773,8.53568285 C14.8791477,8.53568285 14.0461364,8.69505309 13.1717045,8.81692446 C12.4859659,8.92473374 11.8002273,8.96691998 11.0960795,8.96691998 C10.3965341,8.96691998 9.71079545,8.92473374 9.02045455,8.81692446 C8.15982955,8.69505309 7.31761364,8.53568285 6.44318182,8.53568285 C4.28931818,8.53568285 3.06051136,10.3496912 3.06051136,12.4074423 C3.06051136,16.5229446 6.76073864,17.1557382 9.98232955,17.1557382 L12.200625,17.1557382 C15.4360227,17.1557382 19.1316477,16.5276319 19.1316477,12.4074423 Z M15.3301705,9.82470689 C14.1427841,9.82470689 13.6411364,11.4277841 13.6411364,12.4074423 C13.6411364,13.3871006 14.1427841,14.9901778 15.3301705,14.9901778 C16.5175568,14.9901778 17.0192045,13.3871006 17.0192045,12.4074423 C17.0192045,11.4277841 16.5175568,9.82470689 15.3301705,9.82470689 Z" id="Shape"></path>
                    </g>
                </g>
            </g>
        </g>
    </g>
</svg>