<?xml version="1.0" encoding="UTF-8"?>
<svg width="21px" height="31px" viewBox="0 0 21 31" version="1.1" xmlns="http://www.w3.org/2000/svg" xmlns:xlink="http://www.w3.org/1999/xlink">
    <!-- Generator: Sketch 55.1 (78136) - https://sketchapp.com -->
    <title>Logo</title>
    <desc>Created with Sketch.</desc>
    <g id="Page-1" stroke="none" stroke-width="1" fill="none" fill-rule="evenodd">
        <g id="Desktop-HD" transform="translate(-240.000000, -51.000000)">
            <g id="Group-18" transform="translate(234.000000, 51.000000)">
                <g id="Logo">
                    <g id="icon/palette-trowel" fill="#FFC86E">
                        <path d="M19.0786772,23.6331064 L19.7364277,26.9566799 C19.873904,28.8657413 18.4250981,30.5344091 16.500429,30.6707707 C16.4175866,30.67664 16.3345595,30.6795775 16.251506,30.6795775 C14.3219333,30.6795775 12.7577056,28.8706052 12.7577056,26.9566799 C12.7577056,26.9097534 12.9774516,25.8034782 13.4169436,23.6378544 C13.5267868,23.0966024 13.1770595,22.5687863 12.6358072,22.4589445 C12.5703454,22.4456597 12.5037172,22.4389671 12.436921,22.4389671 L9.99774096,22.4389671 C9.30696915,22.4389671 8.74698795,21.883527 8.74698795,21.1983568 C8.74698795,20.5131866 9.30696915,19.9577465 9.99774096,19.9577465 L22.5052711,19.9577465 C23.1960429,19.9577465 23.7560241,20.5131866 23.7560241,21.1983568 C23.7560241,21.883527 23.1960429,22.4389671 22.5052711,22.4389671 L20.0596512,22.4389671 C19.5073664,22.4389671 19.0596512,22.8866824 19.0596512,23.4389671 C19.0596512,23.5041456 19.0660235,23.569168 19.0786772,23.6331064 Z" id="shape"></path>
                        <path d="M7.33517935,0.345070423 L25.4220667,0.345070423 C25.9743514,0.345070423 26.4220667,0.792785673 26.4220667,1.34507042 L26.4220667,17.1197183 C26.4220667,18.2242878 25.5266362,19.1197183 24.4220667,19.1197183 L8.33517935,19.1197183 C7.23060985,19.1197183 6.33517935,18.2242878 6.33517935,17.1197183 L6.33517935,1.34507042 C6.33517935,0.792785673 6.7828946,0.345070423 7.33517935,0.345070423 Z" id="Combined-Shape-Copy"></path>
                    </g>
                    <path d="M10,10 C14.3333333,14 18.6666667,14 23,10" id="Path-2" stroke="#E96A22" stroke-width="2" stroke-linecap="round"></path>
                </g>
            </g>
        </g>
    </g>
</svg>