<?xml version="1.0" encoding="UTF-8"?>
<svg width="199px" height="221px" viewBox="0 0 199 221" version="1.1" xmlns="http://www.w3.org/2000/svg" xmlns:xlink="http://www.w3.org/1999/xlink">
    <!-- Generator: Sketch 55.1 (78136) - https://sketchapp.com -->
    <title>Group 10</title>
    <desc>Created with Sketch.</desc>
    <g id="Page-1" stroke="none" stroke-width="1" fill="none" fill-rule="evenodd">
        <g id="Desktop-HD" transform="translate(-851.000000, -1156.000000)">
            <g id="Find-the-perfect-match" transform="translate(240.000000, 1155.000000)">
                <g id="Group-10" transform="translate(612.000000, 0.000000)">
                    <ellipse id="Oval-Copy-2" fill="#D8D8D8" opacity="0.255650112" cx="123.5" cy="216.5" rx="53.5" ry="5.5"></ellipse>
                    <g id="choices-colour" transform="translate(99.000000, 107.500000) scale(-1, 1) translate(-99.000000, -107.500000) ">
                        <path d="M153.364387,27.2194645 C172.894929,35.4048104 187.327585,57.8289187 187.979414,79.9325092 C188.592328,102.07495 175.421981,123.850739 161.436849,142.615601 C147.493064,161.339186 132.736925,177.010566 114.590304,183.894415 C96.4071993,190.773408 74.7995617,188.862442 59.3064672,179.254191 C43.8547201,169.682362 34.5588634,152.384111 24.241484,135.287398 C13.9265368,118.234392 2.67519375,101.341644 0.432708179,81.1927271 C-1.85112474,61.0850887 4.91767933,37.6411508 20.4521212,28.7662059 C35.986563,19.8912611 60.242863,25.5925936 84.7058998,25.3886277 C109.168937,25.1846618 133.794931,19.0802538 153.364387,27.2194645 Z" id="Path" fill="#F0F0F3" fill-rule="nonzero"></path>
                        <path d="M163.364387,17.2194645 C182.894929,25.4048104 197.327585,47.8289187 197.979414,69.9325092 C198.592328,92.0749504 185.421981,113.850739 171.436849,132.615601 C157.493064,151.339186 142.736925,167.010566 124.590304,173.894415 C106.407199,180.773408 84.7995617,178.862442 69.3064672,169.254191 C53.8547201,159.682362 44.5588634,142.384111 34.241484,125.287398 C23.9265368,108.234392 12.6751938,91.3416444 10.4327082,71.1927271 C8.14887526,51.0850887 14.9176793,27.6411508 30.4521212,18.7662059 C45.986563,9.89126106 70.242863,15.5925936 94.7058998,15.3886277 C119.168937,15.1846618 143.794931,9.08025378 163.364387,17.2194645 Z" id="Path-Copy-5" stroke="#FFA714" fill-rule="nonzero"></path>
                        <path d="M50,92.5647747 C50.1592162,95.5595478 50,209 50,209 L58.4874464,209 L71.4696877,134.45048 C71.6338028,132.033646 74,105.313691 74,105.313691 L59.0581751,91 L50,92.5647747 Z" id="Path" fill="#56CAD8" fill-rule="nonzero"></path>
                        <path d="M84.2678625,92 C84.2678625,92 94,149.886051 94,152.242515 C94,154.598978 78.0657698,208 78.0657698,208 L69.890284,208 L76.8449626,146.43112 L53,94.3473477" id="Path" fill="#74D5DE" fill-rule="nonzero"></path>
                        <path d="M44.9291475,61 C44.5011126,61.6378335 41.8075671,68.0816492 42.0109428,70.6184317 C42.3231009,74.4987874 44.9196882,76.6451091 49.3608457,79 C50.6378558,79 52,63.8738884 52,63.8738884 L48.005796,61 L44.9291475,61 Z" id="Path" fill="#DE8E68" fill-rule="nonzero"></path>
                        <path d="M54,44 C48.1310846,48.6611425 43.1532974,57.8355304 44.1210071,59.5244193 C44.5851364,60.3139987 47.0032503,61.7214062 49.7648198,63" id="Path" fill="#FCC486" fill-rule="nonzero"></path>
                        <ellipse id="Oval" fill="#DE8E68" fill-rule="nonzero" transform="translate(67.989482, 15.918379) rotate(-76.270000) translate(-67.989482, -15.918379) " cx="67.9894823" cy="15.9183786" rx="13.6692001" ry="10.7555137"></ellipse>
                        <path d="M67.6726748,32 C81.2132991,32 86.7450955,91.4089036 84.5232295,94.4219403 C81.4925369,98.5324084 59.8082801,101.84185 50.82212,95.289107 C47.3653491,92.778243 46.8405747,32 67.6726748,32 Z" id="Path" fill="#FED385" fill-rule="nonzero"></path>
                        <polyline id="Path" fill="#000000" fill-rule="nonzero" points="50 209 50 215 70 215 70 211.610995 58.5145595 209"></polyline>
                        <polyline id="Path" fill="#000000" fill-rule="nonzero" points="70 208 70 215 91 215 91 212.277778 78.2260676 208"></polyline>
                        <path d="M86.4540654,57.848596 C86.8377453,58.2534068 90.1573057,63.0605345 90.6211214,64.0870189 C91.5463244,63.3039028 121.25724,38.586351 121.745339,38.2514183 C122.233438,37.9164856 123.078505,37.9454007 123.408761,38.1670827 C123.962973,38.5269485 124.158107,39.2413973 123.862864,39.8296983 C123.600601,40.3116159 119.907075,43.5356444 119.907075,43.5356444 C120.20819,43.9091305 121.750195,47.7885669 119.775943,49.6102153 C118.433063,50.851153 116.910485,51.2631925 115.446188,50.494534 C114.474846,51.5378855 91.2549219,77 87.2044268,77 C85.3297373,77 78.8994551,70.4531499 76,65.5207236" id="Path" fill="#DE8E68" fill-rule="nonzero"></path>
                        <path d="M66,46.9814815 C66,54.9259259 72.4269663,66 74.6516854,66 C76.8764045,66 88,58.0555556 88,56.1296296 C88,54.2037037 79.3483146,40 71.9325843,40 C68.9662921,40 66,43.1296296 66,46.9814815 Z" id="Path" fill="#FED892" fill-rule="nonzero"></path>
                        <path d="M65.2344386,14.1365494 C69.4132247,14.1682625 77,5.9179728 77,5.59840215 C77,4.86656096 75.7104906,1 68.2279426,1 C62.8832655,1 54.4747915,4.76654266 54.4747915,17.1370982 C54.4747915,23.5065561 52,30.3102397 52,33.3839727 C52,38.0555589 55.7400621,41 61.6470816,41 C64.5,41 68.790285,39.585107 68.790285,37.262731 C68.790285,33.8669879 72.2515998,22.8332622 65.6392282,20.4303836" id="Path" fill="#000000" fill-rule="nonzero"></path>
                        <path d="M67,20.6222649 C66.6100742,20.8668818 66.1555016,20.9980086 65.6905188,21 C64.2045319,21 63,19.6548946 63,17.9942422 C63,16.3335899 64.2045319,15 65.6905188,15 C65.9686979,14.9997793 66.2447728,15.0465494 66.5062612,15.1381965" id="Path" fill="#DE8E68" fill-rule="nonzero"></path>
                        <rect id="Rectangle" fill="#FD8369" x="140" y="3" width="41" height="36"></rect>
                        <circle id="Oval" fill="#3E5F7B" fill-rule="nonzero" cx="144.5" cy="75.5" r="20.5"></circle>
                    </g>
                </g>
            </g>
        </g>
    </g>
</svg>