<?xml version="1.0" encoding="UTF-8"?>
<svg width="373px" height="304px" viewBox="0 0 373 304" version="1.1" xmlns="http://www.w3.org/2000/svg" xmlns:xlink="http://www.w3.org/1999/xlink">
    <!-- Generator: Sketch 55.1 (78136) - https://sketchapp.com -->
    <title>Group 2</title>
    <desc>Created with Sketch.</desc>
    <g id="Page-1" stroke="none" stroke-width="1" fill="none" fill-rule="evenodd">
        <g id="Desktop-HD" transform="translate(-236.000000, -789.000000)">
            <g id="Group-16" transform="translate(236.000000, 789.000000)">
                <g id="Group-2">
                    <path d="M182,251.018671 C251.864021,251.018671 362,176.864021 362,107 C362,37.1359792 225,-19.2588205 93,6.87066551 C-39,33.0001515 118,80.8435431 118,147.5 C118,217.364021 112.135979,251.018671 182,251.018671 Z" id="Oval" fill="#F0F0F3"></path>
                    <path d="M192,261.018671 C261.864021,261.018671 372,186.864021 372,117 C372,47.1359792 235,-9.25882046 103,16.8706655 C-29,43.0001515 128,90.8435431 128,157.5 C128,227.364021 122.135979,261.018671 192,261.018671 Z" id="Oval-Copy-5" stroke="#FFA714"></path>
                    <ellipse id="Oval" fill="#D8D8D8" opacity="0.255650112" cx="88.5" cy="298.5" rx="53.5" ry="5.5"></ellipse>
                    <g id="calendar-colour" transform="translate(0.000000, 34.000000)">
                        <path d="M5,0 L267,0 C269.761424,-5.07265313e-16 272,2.23857625 272,5 L272,178 C272,180.761424 269.761424,183 267,183 L5,183 C2.23857625,183 3.38176876e-16,180.761424 0,178 L0,5 C-3.38176876e-16,2.23857625 2.23857625,5.07265313e-16 5,0 Z" id="Path" fill="#C8D6E2"></path>
                        <path d="M154,38 L186,38" id="Path" stroke="#FFFFFF" stroke-width="4" stroke-linecap="round" stroke-linejoin="round"></path>
                        <path d="M154,49 L182,49" id="Path" stroke="#FFFFFF" stroke-width="4" stroke-linecap="round" stroke-linejoin="round"></path>
                        <path d="M68,183 L68,1" id="Path" stroke="#E2ECF4" stroke-width="2.93"></path>
                        <path d="M136,183 L136,1" id="Path" stroke="#E2ECF4" stroke-width="2.93"></path>
                        <path d="M204,183 L204,1" id="Path" stroke="#E2ECF4" stroke-width="2.93"></path>
                        <polygon id="Path" fill="#E49D75" points="119 252.248182 119.61981 258.86 126 259 124.816408 252"></polygon>
                        <polygon id="Path" fill="#E49D75" points="62.8235294 239 60 248.884984 62.8836045 252 68 243.347178"></polygon>
                        <path d="M118.110151,258.070423 L118,263 L133.941827,262.90717 C134.051978,262.977593 133.971868,260.490397 133.971868,260.490397 L124.485546,258 L118.110151,258.070423 Z" id="Path" fill="#000000" fill-rule="nonzero"></path>
                        <polygon id="Path" fill="#000000" fill-rule="nonzero" points="59.1972617 248 56 252.401616 62.6845842 261.956749 69 262 68.9143002 258.772814 66.38286 257.641635 64.1381846 252.022338"></polygon>
                        <polygon id="Path" fill="#FFFFFF" points="124 50 156 50 156 82 124 82"></polygon>
                        <polygon id="Path" fill="#FD8369" points="124 50 156 50 156 57 124 57"></polygon>
                        <path d="M88.1027429,88.0822744 C89.7537199,87.7137082 95.6306541,87.8721572 97.2034984,87.0179104 C98.7763426,86.1636637 118.190608,71.4141286 120.143924,69.4059598 C122.097241,67.397791 124.512559,65.654852 126.258654,63.4710114 C128.004749,61.2871709 126.316404,67.3392337 124.791119,68.5310458 C124.614471,70.1499812 124.570309,73.5394119 124.570309,73.5394119 C123.753799,73.3937796 122.914785,73.6080306 122.263697,74.1284289 C121.163046,75.0033429 105.244367,94 105.244367,94 C105.244367,94 86.451766,88.4542851 88.1027429,88.0822744 Z" id="Path" fill="#E49D75"></path>
                        <path d="M73.3262332,143.042648 C72.3508969,146.785685 70.470852,172.986948 76.2522422,186.094385 C73.7432735,195.679964 61,240.351416 61,240.351416 L67.3363229,246 L100,195.979407 C100,195.979407 93.1995516,141.259601 73.3262332,143.042648 Z" id="Path" fill="#5FC5D1"></path>
                        <path d="M107.096413,141.538491 C108.419736,145.261548 121.942551,194.107502 121.942551,194.107502 L125,253.441371 L118.002886,254 L96.2673859,194.253972 C93.6140049,191.21217 76.7576278,150.384582 76,145.145734 C79.313359,141.582773 105.77309,137.812029 107.096413,141.538491 Z" id="Path" fill="#6BD5E1"></path>
                        <path d="M82.6583317,85 C85.3243445,85 100.423886,88.6941413 103.261791,94.6469386 C104.822302,97.9192763 111.667652,137.925476 107.865803,144.215031 C104.063955,150.504587 77.8689457,150.235861 72.7593686,145.494032 C69.8843889,142.833982 68.9575197,84.9795958 82.6583317,85 Z" id="Path" fill="#FFD98E"></path>
                        <path d="M5,0 L267,0 C269.761424,-5.07265313e-16 272,2.23857625 272,5 L272,25 L0,25 L0,5 C-3.38176876e-16,2.23857625 2.23857625,5.07265313e-16 5,0 Z" id="Path" fill="#E2ECF4"></path>
                        <path d="M13,39 L55,39" id="Path" stroke="#FFFFFF" stroke-width="4" stroke-linecap="round" stroke-linejoin="round"></path>
                        <path d="M79,78 L85,78 L85,89.2619778 C82.8426573,90.9225277 79,89.2619778 79,89.2619778 L79,78 Z" id="Path" fill="#E49D75"></path>
                        <path d="M72,67.9982701 C72,60.8192947 76.7003971,55 82.501668,55 C88.3029388,55 93,60.8192947 93,67.9982701 C93,75.1772455 88.2996029,81 82.501668,81 C76.7037331,81 72,75.1772455 72,67.9982701 Z" id="Path" fill="#E49D75"></path>
                        <path d="M81.2742609,53.0020313 C84.6764212,52.9244305 89,55.0871309 89,56.5885376 C89,59.1864772 84.9700601,65.0773897 81.9695437,67.4931362 C82.8099583,69.4331561 83.5794946,70.7152561 83.5794946,72.3617426 C83.5794946,74.008229 81.0177488,80.4592168 81.0177488,84.8453486 C81.0177488,88.2867752 81.7872851,90.6282948 81.7872851,93.4826545 C81.7872851,101.279847 76.6975452,106 69.3363233,106 C61.9751014,106 57.0304934,98.020614 57,91.5426346 C56.9629902,83.600362 65.7755305,73.8530274 67.9120062,67.8642704 C69.710966,62.810097 73.1165015,53.0020313 81.2742609,53.0020313 Z" id="Path" fill="#000000" fill-rule="nonzero"></path>
                        <path d="M79,68.5000347 C79,67.4886054 79.609443,66.576828 80.5440046,66.1900678 C81.4785661,65.8033076 82.5540931,66.017776 83.2688272,66.7334184 C83.9835613,67.4490609 84.1966637,68.5248596 83.8087172,69.4589296 C83.4207706,70.3929995 82.5082203,71.0012815 81.4967921,71 C80.8340522,71 80.1985026,70.7365091 79.7301723,70.2675836 C79.261842,69.7986581 78.9991599,69.1627743 79,68.5000347 L79,68.5000347 Z" id="Path" fill="#E49D75"></path>
                        <path d="M107.901324,106.824239 C110.878742,107.531355 123.074703,109.575257 125.415546,108.844571 C127.75639,108.113884 151.872127,85.1225096 153.751538,83.4220637 C155.630949,81.7216179 159.403243,79.314056 159.857939,76.3711062 C160.312635,73.4281564 159.857939,70.9094762 155.769042,69.4346341 C155.846508,71.3337459 155.920607,74.296899 155.839772,73.8557933 C155.149308,71.566084 155.068473,68.9699578 153.8189,69 C153.145276,71.1418144 154.095086,75.1791105 152.437971,77.8829877 C150.534984,79.9504605 125.260613,96.5306491 122.606535,97.3690867 C119.144107,97.3690867 110.265744,94.3385892 110.265744,94.3385892 C110.265744,94.3385892 104.927274,106.117123 107.901324,106.824239 Z" id="Path" fill="#E49D75"></path>
                        <path d="M88.1862143,94.956131 C90.27408,86.461662 108.590667,90.9534843 111.671292,93.336563 C112.74934,96.5723938 111.053802,106.170813 108.362093,107.952338 C104.319412,108.520839 85.9618868,103.992659 88.1862143,94.956131 Z" id="Path" fill="#FFE4AD"></path>
                        <path d="M13,58 L45,58" id="Path" stroke="#FFFFFF" stroke-width="4" stroke-linecap="round" stroke-linejoin="round"></path>
                        <path d="M13,89 L30,89" id="Path" stroke="#FFFFFF" stroke-width="4" stroke-linecap="round" stroke-linejoin="round"></path>
                        <path d="M13,102 L45,102" id="Path" stroke="#FFFFFF" stroke-width="4" stroke-linecap="round" stroke-linejoin="round"></path>
                        <path d="M13,112 L41,112" id="Path" stroke="#FFFFFF" stroke-width="4" stroke-linecap="round" stroke-linejoin="round"></path>
                        <path d="M215,38 L257,38" id="Path" stroke="#FFFFFF" stroke-width="4" stroke-linecap="round" stroke-linejoin="round"></path>
                        <path d="M215,49 L245,49" id="Path" stroke="#FFFFFF" stroke-width="4" stroke-linecap="round" stroke-linejoin="round"></path>
                        <path d="M215,61 L255,61" id="Path" stroke="#FFFFFF" stroke-width="4" stroke-linecap="round" stroke-linejoin="round"></path>
                        <path d="M215,73 L235,73" id="Path" stroke="#FFFFFF" stroke-width="4" stroke-linecap="round" stroke-linejoin="round"></path>
                        <polygon id="Path" fill="#232829" fill-rule="nonzero" points="134.452261 64.5268456 134.41206 64.5268456 132.314908 65.6375839 132 64.4026846 134.619765 63 136 63 136 75 134.452261 75"></polygon>
                        <polygon id="Path" fill="#232829" fill-rule="nonzero" points="149 63 149 64.0704698 143.475177 75 141.702128 75 147.202128 64.3825503 147.202128 64.3456376 141 64.3456376 141 63.0033557"></polygon>
                    </g>
                </g>
            </g>
        </g>
    </g>
</svg>